{"accessors" : [{"bufferView" : 0, "byteOffset" : 0, "componentType" : 5123, "count" : 1560, "type" : "SCALAR", "max" : [1529], "min" : [0]}, {"bufferView" : 1, "byteOffset" : 0, "componentType" : 5126, "count" : 1530, "type" : "VEC3", "max" : [0.0019155635964125395, 9.195494385494385E-06, 0.0027286510448902845], "min" : [-0.0019155635964125395, -0.002728757681325078, -4.309345513320295E-06], "name" : "POSITION"}, {"bufferView" : 1, "byteOffset" : 12, "componentType" : 5126, "count" : 1530, "type" : "VEC3", "max" : [0.998492419719696, 0.9656001329421997, 0.9998098015785217], "min" : [-0.998492419719696, -0.991936206817627, -1.0000044107437134], "name" : "NORMAL"}, {"bufferView" : 1, "byteOffset" : 24, "componentType" : 5126, "count" : 1530, "type" : "VEC2", "max" : [0, 1], "min" : [0, 1], "name" : "TEXCOORD_0"}, {"bufferView" : 0, "byteOffset" : 3120, "componentType" : 5123, "count" : 168, "type" : "SCALAR", "max" : [163], "min" : [0]}, {"bufferView" : 2, "byteOffset" : 0, "componentType" : 5126, "count" : 164, "type" : "VEC3", "max" : [0.001889873412437737, -0.000595464778598398, 0.0009365433943457901], "min" : [-0.001889873412437737, -0.002728757681325078, 0.00013310372014530003], "name" : "POSITION"}, {"bufferView" : 2, "byteOffset" : 12, "componentType" : 5126, "count" : 164, "type" : "VEC3", "max" : [0.9893077611923218, -0.05677708983421326, 0.9818849563598633], "min" : [-0.9893077611923218, -0.9895963072776794, 0.122103251516819], "name" : "NORMAL"}, {"bufferView" : 2, "byteOffset" : 24, "componentType" : 5126, "count" : 164, "type" : "VEC2", "max" : [0, 1], "min" : [0, 1], "name" : "TEXCOORD_0"}, {"bufferView" : 0, "byteOffset" : 3456, "componentType" : 5123, "count" : 882, "type" : "SCALAR", "max" : [867], "min" : [0]}, {"bufferView" : 3, "byteOffset" : 0, "componentType" : 5126, "count" : 868, "type" : "VEC3", "max" : [0.0017935375217348337, 6.331205077003688E-05, 0.010323449037969112], "min" : [-0.0017935375217348337, -0.0015694997273385525, 0.0022143360693007708], "name" : "POSITION"}, {"bufferView" : 3, "byteOffset" : 12, "componentType" : 5126, "count" : 868, "type" : "VEC3", "max" : [0.9950085878372192, 0.9926996827125549, 0.9998489618301392], "min" : [-0.9950085878372192, -0.9887928366661072, -1.0000044107437134], "name" : "NORMAL"}, {"bufferView" : 3, "byteOffset" : 24, "componentType" : 5126, "count" : 868, "type" : "VEC2", "max" : [0, 1], "min" : [0, 1], "name" : "TEXCOORD_0"}, {"bufferView" : 0, "byteOffset" : 5220, "componentType" : 5123, "count" : 666, "type" : "SCALAR", "max" : [651], "min" : [0]}, {"bufferView" : 4, "byteOffset" : 0, "componentType" : 5126, "count" : 652, "type" : "VEC3", "max" : [0.0017935375217348337, 0.00041098377550952137, 0.010323449037969112], "min" : [-0.0017935375217348337, -0.0015927262138575315, 0.0063718874007463455], "name" : "POSITION"}, {"bufferView" : 4, "byteOffset" : 12, "componentType" : 5126, "count" : 652, "type" : "VEC3", "max" : [0.9996995329856873, 0.6370009183883667, 1.0000044107437134], "min" : [-0.9996995329856873, -0.9975042343139648, -0.15842103958129883], "name" : "NORMAL"}, {"bufferView" : 4, "byteOffset" : 24, "componentType" : 5126, "count" : 652, "type" : "VEC2", "max" : [0, 1], "min" : [0, 1], "name" : "TEXCOORD_0"}, {"bufferView" : 0, "byteOffset" : 6552, "componentType" : 5123, "count" : 1554, "type" : "SCALAR", "max" : [1520], "min" : [0]}, {"bufferView" : 5, "byteOffset" : 0, "componentType" : 5126, "count" : 1521, "type" : "VEC3", "max" : [0.0018379007233306766, 0.0006333382916636765, 0.010220609605312347], "min" : [-0.0018379007233306766, -0.0016191961476579309, 0.00460843788459897], "name" : "POSITION"}, {"bufferView" : 5, "byteOffset" : 12, "componentType" : 5126, "count" : 1521, "type" : "VEC3", "max" : [0.9978638291358948, 0.9999592900276184, 0.5694063305854797], "min" : [-0.9978638291358948, -0.9797270894050598, -0.9016904234886169], "name" : "NORMAL"}, {"bufferView" : 5, "byteOffset" : 24, "componentType" : 5126, "count" : 1521, "type" : "VEC2", "max" : [0, 1], "min" : [0, 1], "name" : "TEXCOORD_0"}, {"bufferView" : 0, "byteOffset" : 9660, "componentType" : 5123, "count" : 216, "type" : "SCALAR", "max" : [213], "min" : [0]}, {"bufferView" : 6, "byteOffset" : 0, "componentType" : 5126, "count" : 214, "type" : "VEC3", "max" : [0.0018008197657763958, 0.00024478111299686134, 0.004894495941698551], "min" : [-0.0018008197657763958, -0.0012031799415126443, 0.002577089937403798], "name" : "POSITION"}, {"bufferView" : 6, "byteOffset" : 12, "componentType" : 5126, "count" : 214, "type" : "VEC3", "max" : [0.9838671088218689, 0.986265242099762, 0.2221372127532959], "min" : [-0.9838671088218689, -0.9922159314155579, -0.18626034259796143], "name" : "NORMAL"}, {"bufferView" : 6, "byteOffset" : 24, "componentType" : 5126, "count" : 214, "type" : "VEC2", "max" : [0, 1], "min" : [0, 1], "name" : "TEXCOORD_0"}, {"bufferView" : 0, "byteOffset" : 10092, "componentType" : 5123, "count" : 6222, "type" : "SCALAR", "max" : [6119], "min" : [0]}, {"bufferView" : 7, "byteOffset" : 0, "componentType" : 5126, "count" : 6120, "type" : "VEC3", "max" : [0.008377335034310818, 0.0006589789409190416, 0.01581907644867897], "min" : [-0.008377335034310818, -0.001935660489834845, 0.009938637726008892], "name" : "POSITION"}, {"bufferView" : 7, "byteOffset" : 12, "componentType" : 5126, "count" : 6120, "type" : "VEC3", "max" : [0.9969664812088013, 0.9911620020866394, 0.9999292492866516], "min" : [-0.996966540813446, -0.9993854761123657, -0.9992843270301819], "name" : "NORMAL"}, {"bufferView" : 7, "byteOffset" : 24, "componentType" : 5126, "count" : 6120, "type" : "VEC2", "max" : [0, 1], "min" : [0, 1], "name" : "TEXCOORD_0"}, {"bufferView" : 0, "byteOffset" : 22536, "componentType" : 5123, "count" : 1482, "type" : "SCALAR", "max" : [1451], "min" : [0]}, {"bufferView" : 8, "byteOffset" : 0, "componentType" : 5126, "count" : 1452, "type" : "VEC3", "max" : [0.006901920773088932, 0.0006589789409190416, 0.015448558144271374], "min" : [-0.006901920773088932, -0.0018015974201261997, 0.0106718884781003], "name" : "POSITION"}, {"bufferView" : 8, "byteOffset" : 12, "componentType" : 5126, "count" : 1452, "type" : "VEC3", "max" : [0.9655359983444214, 0.9949281215667725, 0.9980580806732178], "min" : [-0.9655360579490662, -0.9956114292144775, -0.9481639862060547], "name" : "NORMAL"}, {"bufferView" : 8, "byteOffset" : 24, "componentType" : 5126, "count" : 1452, "type" : "VEC2", "max" : [0, 1], "min" : [0, 1], "name" : "TEXCOORD_0"}, {"bufferView" : 0, "byteOffset" : 25500, "componentType" : 5123, "count" : 1140, "type" : "SCALAR", "max" : [1123], "min" : [0]}, {"bufferView" : 9, "byteOffset" : 0, "componentType" : 5126, "count" : 1124, "type" : "VEC3", "max" : [0.004372686147689819, 0.0005943856085650623, 0.014914398081600666], "min" : [-0.004372686147689819, -0.0017454568296670914, 0.010644680820405483], "name" : "POSITION"}, {"bufferView" : 9, "byteOffset" : 12, "componentType" : 5126, "count" : 1124, "type" : "VEC3", "max" : [0.9828494191169739, 0.9831196665763855, 0.9750193953514099], "min" : [-0.9828494191169739, -0.9961081147193909, -0.9992442727088928], "name" : "NORMAL"}, {"bufferView" : 9, "byteOffset" : 24, "componentType" : 5126, "count" : 1124, "type" : "VEC2", "max" : [0, 1], "min" : [0, 1], "name" : "TEXCOORD_0"}, {"bufferView" : 0, "byteOffset" : 27780, "componentType" : 5123, "count" : 3222, "type" : "SCALAR", "max" : [3158], "min" : [0]}, {"bufferView" : 10, "byteOffset" : 0, "componentType" : 5126, "count" : 3159, "type" : "VEC3", "max" : [0.00729995546862483, 0.0004487730038817972, 0.01586257852613926], "min" : [-0.00729995546862483, -0.001642285962589085, 0.011181602254509926], "name" : "POSITION"}, {"bufferView" : 10, "byteOffset" : 12, "componentType" : 5126, "count" : 3159, "type" : "VEC3", "max" : [0.9943748116493225, 0.9963710904121399, 0.998246967792511], "min" : [-0.9943748116493225, -0.9984312057495117, -0.9959972500801086], "name" : "NORMAL"}, {"bufferView" : 10, "byteOffset" : 24, "componentType" : 5126, "count" : 3159, "type" : "VEC2", "max" : [0, 1], "min" : [0, 1], "name" : "TEXCOORD_0"}, {"bufferView" : 0, "byteOffset" : 34224, "componentType" : 5123, "count" : 6336, "type" : "SCALAR", "max" : [6206], "min" : [0]}, {"bufferView" : 11, "byteOffset" : 0, "componentType" : 5126, "count" : 6207, "type" : "VEC3", "max" : [0.0015725335106253624, 0.0008674942655488849, 0.018534522503614426], "min" : [-0.0015725335106253624, -0.001972550293430686, 0.015408179722726345], "name" : "POSITION"}, {"bufferView" : 11, "byteOffset" : 12, "componentType" : 5126, "count" : 6207, "type" : "VEC3", "max" : [0.9997251629829407, 0.9975867867469788, 0.9967824816703796], "min" : [-0.9997251629829407, -0.9895672798156738, -0.9903090000152588], "name" : "NORMAL"}, {"bufferView" : 11, "byteOffset" : 24, "componentType" : 5126, "count" : 6207, "type" : "VEC2", "max" : [0, 1], "min" : [0, 1], "name" : "TEXCOORD_0"}, {"bufferView" : 0, "byteOffset" : 46896, "componentType" : 5123, "count" : 1752, "type" : "SCALAR", "max" : [1729], "min" : [0]}, {"bufferView" : 12, "byteOffset" : 0, "componentType" : 5126, "count" : 1730, "type" : "VEC3", "max" : [0.0011043259873986244, 0.0008674942655488849, 0.018526386469602585], "min" : [-0.0011043259873986244, -0.0017895195633172989, 0.015511326491832733], "name" : "POSITION"}, {"bufferView" : 12, "byteOffset" : 12, "componentType" : 5126, "count" : 1730, "type" : "VEC3", "max" : [0.999943733215332, 0.9911373853683472, 0.9900981187820435], "min" : [-0.999943733215332, -0.9685507416725159, -0.98624187707901], "name" : "NORMAL"}, {"bufferView" : 12, "byteOffset" : 24, "componentType" : 5126, "count" : 1730, "type" : "VEC2", "max" : [0, 1], "min" : [0, 1], "name" : "TEXCOORD_0"}, {"bufferView" : 0, "byteOffset" : 50400, "componentType" : 5123, "count" : 6474, "type" : "SCALAR", "max" : [6306], "min" : [0]}, {"bufferView" : 13, "byteOffset" : 0, "componentType" : 5126, "count" : 6307, "type" : "VEC3", "max" : [0.0012818200048059225, 0.0013995469780638814, 0.018858587369322777], "min" : [-0.0012818200048059225, -0.0019482036586850882, 0.014270682819187641], "name" : "POSITION"}, {"bufferView" : 13, "byteOffset" : 12, "componentType" : 5126, "count" : 6307, "type" : "VEC3", "max" : [0.9997251629829407, 0.9927530884742737, 0.9990819692611694], "min" : [-0.9997251629829407, -0.9975531697273254, -1.0000044107437134], "name" : "NORMAL"}, {"bufferView" : 13, "byteOffset" : 24, "componentType" : 5126, "count" : 6307, "type" : "VEC2", "max" : [0, 1], "min" : [0, 1], "name" : "TEXCOORD_0"}], "asset" : {"generator" : "Aspose.3D 22.10", "version" : "2.0"}, "buffers" : [{"uri" : "data:application/octet-stream;base64,", "byteLength" : 1076972}], "bufferViews" : [{"buffer" : 0, "byteOffset" : 0, "byteLength" : 63348, "target" : 34963}, {"buffer" : 0, "byteOffset" : 63352, "byteLength" : 49920, "byteStride" : 32, "target" : 34962}, {"buffer" : 0, "byteOffset" : 113276, "byteLength" : 5376, "byteStride" : 32, "target" : 34962}, {"buffer" : 0, "byteOffset" : 118656, "byteLength" : 28224, "byteStride" : 32, "target" : 34962}, {"buffer" : 0, "byteOffset" : 146884, "byteLength" : 21312, "byteStride" : 32, "target" : 34962}, {"buffer" : 0, "byteOffset" : 168200, "byteLength" : 49728, "byteStride" : 32, "target" : 34962}, {"buffer" : 0, "byteOffset" : 217932, "byteLength" : 6912, "byteStride" : 32, "target" : 34962}, {"buffer" : 0, "byteOffset" : 224848, "byteLength" : 199104, "byteStride" : 32, "target" : 34962}, {"buffer" : 0, "byteOffset" : 423956, "byteLength" : 47424, "byteStride" : 32, "target" : 34962}, {"buffer" : 0, "byteOffset" : 471384, "byteLength" : 36480, "byteStride" : 32, "target" : 34962}, {"buffer" : 0, "byteOffset" : 507868, "byteLength" : 103104, "byteStride" : 32, "target" : 34962}, {"buffer" : 0, "byteOffset" : 610976, "byteLength" : 202752, "byteStride" : 32, "target" : 34962}, {"buffer" : 0, "byteOffset" : 813732, "byteLength" : 56064, "byteStride" : 32, "target" : 34962}, {"buffer" : 0, "byteOffset" : 869800, "byteLength" : 207168, "byteStride" : 32, "target" : 34962}], "materials" : [{"name" : "SciFi_Light_Accent", "pbrMetallicRoughness" : {"baseColorFactor" : [0.293002098798752, 0.0895459577441216, 0.0245707612484694, 1], "metallicFactor" : 0.400000005960464, "roughnessFactor" : 0.415087103843689}, "emissiveFactor" : [0, 0, 0], "alphaMode" : "OPAQUE", "doubleSided" : false}, {"name" : "SciFi_Light", "pbrMetallicRoughness" : {"baseColorFactor" : [0.358378797769547, 0.311784595251083, 0.292281538248062, 1], "metallicFactor" : 0.400000005960464, "roughnessFactor" : 0.415087103843689}, "emissiveFactor" : [0, 0, 0], "alphaMode" : "OPAQUE", "doubleSided" : false}, {"name" : "SciFi_Light_Accent", "pbrMetallicRoughness" : {"baseColorFactor" : [0.293002098798752, 0.0895459577441216, 0.0245707612484694, 1], "metallicFactor" : 0.400000005960464, "roughnessFactor" : 0.415087103843689}, "emissiveFactor" : [0, 0, 0], "alphaMode" : "OPAQUE", "doubleSided" : false}, {"name" : "SciFi_Light", "pbrMetallicRoughness" : {"baseColorFactor" : [0.358378797769547, 0.311784595251083, 0.292281538248062, 1], "metallicFactor" : 0.400000005960464, "roughnessFactor" : 0.415087103843689}, "emissiveFactor" : [0, 0, 0], "alphaMode" : "OPAQUE", "doubleSided" : false}, {"name" : "SciFi_MainDark", "pbrMetallicRoughness" : {"baseColorFactor" : [0.0236454755067825, 0.0361489728093147, 0.0397652611136436, 1], "metallicFactor" : 0.400000005960464, "roughnessFactor" : 0.415087103843689}, "emissiveFactor" : [0, 0, 0], "alphaMode" : "OPAQUE", "doubleSided" : false}, {"name" : "SciFi_Main", "pbrMetallicRoughness" : {"baseColorFactor" : [0.0435842275619507, 0.0709244757890701, 0.0675009861588478, 1], "metallicFactor" : 0.400000005960464, "roughnessFactor" : 0.415087103843689}, "emissiveFactor" : [0, 0, 0], "alphaMode" : "OPAQUE", "doubleSided" : false}, {"name" : "SciFi_Light_Accent", "pbrMetallicRoughness" : {"baseColorFactor" : [0.293002098798752, 0.0895459577441216, 0.0245707612484694, 1], "metallicFactor" : 0.400000005960464, "roughnessFactor" : 0.415087103843689}, "emissiveFactor" : [0, 0, 0], "alphaMode" : "OPAQUE", "doubleSided" : false}, {"name" : "SciFi_Light", "pbrMetallicRoughness" : {"baseColorFactor" : [0.358378797769547, 0.311784595251083, 0.292281538248062, 1], "metallicFactor" : 0.400000005960464, "roughnessFactor" : 0.415087103843689}, "emissiveFactor" : [0, 0, 0], "alphaMode" : "OPAQUE", "doubleSided" : false}, {"name" : "SciFi_MainDark", "pbrMetallicRoughness" : {"baseColorFactor" : [0.0236454755067825, 0.0361489728093147, 0.0397652611136436, 1], "metallicFactor" : 0.400000005960464, "roughnessFactor" : 0.415087103843689}, "emissiveFactor" : [0, 0, 0], "alphaMode" : "OPAQUE", "doubleSided" : false}, {"name" : "SciFi_Main", "pbrMetallicRoughness" : {"baseColorFactor" : [0.0435842275619507, 0.0709244757890701, 0.0675009861588478, 1], "metallicFactor" : 0.400000005960464, "roughnessFactor" : 0.415087103843689}, "emissiveFactor" : [0, 0, 0], "alphaMode" : "OPAQUE", "doubleSided" : false}, {"name" : "SciFi_Light_Accent", "pbrMetallicRoughness" : {"baseColorFactor" : [0.293002098798752, 0.0895459577441216, 0.0245707612484694, 1], "metallicFactor" : 0.400000005960464, "roughnessFactor" : 0.415087103843689}, "emissiveFactor" : [0, 0, 0], "alphaMode" : "OPAQUE", "doubleSided" : false}, {"name" : "SciFi_Light", "pbrMetallicRoughness" : {"baseColorFactor" : [0.358378797769547, 0.311784595251083, 0.292281538248062, 1], "metallicFactor" : 0.400000005960464, "roughnessFactor" : 0.415087103843689}, "emissiveFactor" : [0, 0, 0], "alphaMode" : "OPAQUE", "doubleSided" : false}, {"name" : "Grey", "pbrMetallicRoughness" : {"baseColorFactor" : [0.0397652611136436, 0.0397652611136436, 0.0397652611136436, 1], "metallicFactor" : 0.400000005960464, "roughnessFactor" : 0.415087103843689}, "emissiveFactor" : [0, 0, 0], "alphaMode" : "OPAQUE", "doubleSided" : false}], "meshes" : [{"primitives" : [{"attributes" : {"POSITION" : 1, "NORMAL" : 2, "TEXCOORD_0" : 3}, "indices" : 0, "material" : 0, "mode" : 4}, {"attributes" : {"POSITION" : 5, "NORMAL" : 6, "TEXCOORD_0" : 7}, "indices" : 4, "material" : 1, "mode" : 4}]}, {"primitives" : [{"attributes" : {"POSITION" : 9, "NORMAL" : 10, "TEXCOORD_0" : 11}, "indices" : 8, "material" : 2, "mode" : 4}, {"attributes" : {"POSITION" : 13, "NORMAL" : 14, "TEXCOORD_0" : 15}, "indices" : 12, "material" : 3, "mode" : 4}, {"attributes" : {"POSITION" : 17, "NORMAL" : 18, "TEXCOORD_0" : 19}, "indices" : 16, "material" : 4, "mode" : 4}, {"attributes" : {"POSITION" : 21, "NORMAL" : 22, "TEXCOORD_0" : 23}, "indices" : 20, "material" : 5, "mode" : 4}]}, {"primitives" : [{"attributes" : {"POSITION" : 25, "NORMAL" : 26, "TEXCOORD_0" : 27}, "indices" : 24, "material" : 6, "mode" : 4}, {"attributes" : {"POSITION" : 29, "NORMAL" : 30, "TEXCOORD_0" : 31}, "indices" : 28, "material" : 7, "mode" : 4}, {"attributes" : {"POSITION" : 33, "NORMAL" : 34, "TEXCOORD_0" : 35}, "indices" : 32, "material" : 8, "mode" : 4}, {"attributes" : {"POSITION" : 37, "NORMAL" : 38, "TEXCOORD_0" : 39}, "indices" : 36, "material" : 9, "mode" : 4}]}, {"primitives" : [{"attributes" : {"POSITION" : 41, "NORMAL" : 42, "TEXCOORD_0" : 43}, "indices" : 40, "material" : 10, "mode" : 4}, {"attributes" : {"POSITION" : 45, "NORMAL" : 46, "TEXCOORD_0" : 47}, "indices" : 44, "material" : 11, "mode" : 4}, {"attributes" : {"POSITION" : 49, "NORMAL" : 50, "TEXCOORD_0" : 51}, "indices" : 48, "material" : 12, "mode" : 4}]}], "nodes" : [{"matrix" : [100, 0, 0, 0, 0, -1.3435885581891682E-05, -99.99999657714513, 0, 0, 99.99999657714513, -1.3435885581891682E-05, 0, 0, 0, 0, 1], "mesh" : 0, "name" : "SpaceSuit_Feet"}, {"matrix" : [100, 0, 0, 0, 0, -1.3435885581891682E-05, -99.99999657714513, 0, 0, 99.99999657714513, -1.3435885581891682E-05, 0, 0, 0, 0, 1], "mesh" : 1, "name" : "SpaceSuit_Legs"}, {"matrix" : [100, 0, 0, 0, 0, -1.3435885581891682E-05, -99.99999657714513, 0, 0, 99.99999657714513, -1.3435885581891682E-05, 0, 0, 0, 0, 1], "mesh" : 2, "name" : "SpaceSuit_Body"}, {"matrix" : [100, 0, 0, 0, 0, -1.3435885581891682E-05, -99.99999657714513, 0, 0, 99.99999657714513, -1.3435885581891682E-05, 0, 0, 0, 0, 1], "mesh" : 3, "name" : "SpaceSuit_Head"}, {"children" : [0, 1, 2, 3], "name" : "RootNode"}], "scene" : 0, "scenes" : [{"nodes" : [4]}]}