{"accessors" : [{"bufferView" : 0, "byteOffset" : 0, "componentType" : 5123, "count" : 588, "type" : "SCALAR", "max" : [587], "min" : [0]}, {"bufferView" : 1, "byteOffset" : 0, "componentType" : 5126, "count" : 588, "type" : "VEC3", "max" : [338.46771240234375, 127.96319580078125, 307.5044250488281], "min" : [-338.46771240234375, -127.96319580078125, -306.2430419921875], "name" : "POSITION"}, {"bufferView" : 1, "byteOffset" : 12, "componentType" : 5126, "count" : 588, "type" : "VEC3", "max" : [0.9677500128746033, 1.0000044107437134, 1.0000044107437134], "min" : [-0.9677500128746033, -1.0000044107437134, -1.0000044107437134], "name" : "NORMAL"}, {"bufferView" : 1, "byteOffset" : 24, "componentType" : 5126, "count" : 588, "type" : "VEC2", "max" : [0.875, 1], "min" : [0.125, 0], "name" : "TEXCOORD_0"}, {"bufferView" : 0, "byteOffset" : 1176, "componentType" : 5123, "count" : 162, "type" : "SCALAR", "max" : [161], "min" : [0]}, {"bufferView" : 2, "byteOffset" : 0, "componentType" : 5126, "count" : 162, "type" : "VEC3", "max" : [106.62969970703125, 51.92005920410156, 436.4686279296875], "min" : [-106.62969970703125, -12.282374382019043, -293.0396728515625], "name" : "POSITION"}, {"bufferView" : 2, "byteOffset" : 12, "componentType" : 5126, "count" : 162, "type" : "VEC3", "max" : [1.0000044107437134, 1.0000044107437134, 1.0000044107437134], "min" : [-1.0000044107437134, -1.0000044107437134, -1.0000044107437134], "name" : "NORMAL"}, {"bufferView" : 2, "byteOffset" : 24, "componentType" : 5126, "count" : 162, "type" : "VEC2", "max" : [0.875, 1], "min" : [0.125, 0], "name" : "TEXCOORD_0"}, {"bufferView" : 0, "byteOffset" : 1500, "componentType" : 5123, "count" : 60, "type" : "SCALAR", "max" : [59], "min" : [0]}, {"bufferView" : 3, "byteOffset" : 0, "componentType" : 5126, "count" : 60, "type" : "VEC3", "max" : [283.51165771484375, 38.22356414794922, 307.5044250488281], "min" : [-283.51165771484375, -38.22356414794922, -279.1396789550781], "name" : "POSITION"}, {"bufferView" : 3, "byteOffset" : 12, "componentType" : 5126, "count" : 60, "type" : "VEC3", "max" : [0.7468676567077637, 0.9991384744644165, 0.6649792790412903], "min" : [-0.7468676567077637, -0.9991384744644165, -0.9876371026039124], "name" : "NORMAL"}, {"bufferView" : 3, "byteOffset" : 24, "componentType" : 5126, "count" : 60, "type" : "VEC2", "max" : [0.5416669845581055, 1], "min" : [0.45833298563957214, 0], "name" : "TEXCOORD_0"}], "asset" : {"generator" : "Aspose.3D 22.10", "version" : "2.0"}, "buffers" : [{"uri" : "data:application/octet-stream;base64,", "byteLength" : 27556}], "bufferViews" : [{"buffer" : 0, "byteOffset" : 0, "byteLength" : 1620, "target" : 34963}, {"buffer" : 0, "byteOffset" : 1624, "byteLength" : 18816, "byteStride" : 32, "target" : 34962}, {"buffer" : 0, "byteOffset" : 20444, "byteLength" : 5184, "byteStride" : 32, "target" : 34962}, {"buffer" : 0, "byteOffset" : 25632, "byteLength" : 1920, "byteStride" : 32, "target" : 34962}], "materials" : [{"name" : "lambert2SG", "pbrMetallicRoughness" : {"baseColorFactor" : [0.4, 0.4, 0.4, 1], "metallicFactor" : 0, "roughnessFactor" : 1}, "emissiveFactor" : [0, 0, 0], "alphaMode" : "OPAQUE", "doubleSided" : false}, {"name" : "lambert4SG", "pbrMetallicRoughness" : {"baseColorFactor" : [0.07, 0.07, 0.07, 1], "metallicFactor" : 0, "roughnessFactor" : 1}, "emissiveFactor" : [0, 0, 0], "alphaMode" : "OPAQUE", "doubleSided" : false}, {"name" : "lambert3SG", "pbrMetallicRoughness" : {"baseColorFactor" : [0.33, 0.04, 0.04, 1], "metallicFactor" : 0, "roughnessFactor" : 1}, "emissiveFactor" : [0, 0, 0], "alphaMode" : "OPAQUE", "doubleSided" : false}], "meshes" : [{"primitives" : [{"attributes" : {"POSITION" : 1, "NORMAL" : 2, "TEXCOORD_0" : 3}, "indices" : 0, "material" : 0, "mode" : 4}, {"attributes" : {"POSITION" : 5, "NORMAL" : 6, "TEXCOORD_0" : 7}, "indices" : 4, "material" : 1, "mode" : 4}, {"attributes" : {"POSITION" : 9, "NORMAL" : 10, "TEXCOORD_0" : 11}, "indices" : 8, "material" : 2, "mode" : 4}]}], "nodes" : [{"mesh" : 0, "name" : "Lo_poly_Spaceship_01_by_Liz_Reddington"}], "scene" : 0, "scenes" : [{"nodes" : [0]}]}